<?xml version="1.0" standalone="no"?>
<!DOCTYPE svg PUBLIC "-//W3C//DTD SVG 20010904//EN"
 "http://www.w3.org/TR/2001/REC-SVG-20010904/DTD/svg10.dtd">
<svg version="1.0" xmlns="http://www.w3.org/2000/svg"
 width="300.000000pt" height="300.000000pt" viewBox="0 0 300.000000 300.000000"
 preserveAspectRatio="xMidYMid meet">
<metadata>
Created by potrace 1.11, written by Peter Selinger 2001-2013
</metadata>
<g transform="translate(0.000000,300.000000) scale(0.100000,-0.100000)"
fill="#000000" stroke="none">
<path d="M1347 2495 c-150 -51 -267 -220 -273 -390 -1 -33 4 -75 12 -93 12
-31 12 -33 -22 -70 -41 -44 -95 -153 -117 -237 -59 -218 -26 -540 75 -755 93
-195 189 -282 330 -299 l63 -7 -45 -12 c-25 -7 -76 -21 -115 -33 -38 -11 -75
-21 -82 -22 -7 -2 -16 -6 -19 -10 -4 -4 -14 -7 -22 -7 -7 0 -27 -9 -43 -21
-16 -11 -29 -18 -29 -14 0 8 -94 -47 -98 -57 -2 -4 -10 -8 -17 -8 -23 0 -205
-187 -205 -211 0 -4 -24 -10 -54 -13 -30 -4 -60 -14 -67 -22 -6 -8 -17 -14
-23 -14 -32 0 -118 -104 -134 -163 l-10 -37 1164 0 1164 0 0 35 c0 86 -98 195
-209 233 -19 7 -61 40 -95 74 -72 74 -122 118 -134 118 -5 0 -17 9 -27 20 -9
10 -40 31 -68 46 -106 55 -126 65 -146 70 -9 2 -50 13 -91 24 -73 20 -105 24
-245 36 -38 4 -71 7 -72 8 -1 1 -4 14 -7 28 -4 22 1 31 28 47 72 45 156 163
182 256 21 78 38 265 24 265 -3 0 -6 44 -7 98 -3 102 -11 237 -18 287 -30 221
-125 387 -254 446 -28 13 -47 28 -43 34 11 18 14 38 14 125 1 87 -17 144 -61
194 -43 49 -140 73 -204 51z m103 -1849 c0 -2 -7 -6 -15 -10 -8 -3 -15 -1 -15
4 0 6 7 10 15 10 8 0 15 -2 15 -4z"/>
</g>
</svg>
